<?xml version="1.0" encoding="UTF-8" standalone="no"?>
<!-- Created with Inkscape (http://www.inkscape.org/) -->

<svg
   width="210mm"
   height="297mm"
   viewBox="0 0 210 297"
   version="1.1"
   id="svg1"
   inkscape:version="1.4.2 (ebf0e940d0, 2025-05-08)"
   sodipodi:docname="logo1.svg"
   xmlns:inkscape="http://www.inkscape.org/namespaces/inkscape"
   xmlns:sodipodi="http://sodipodi.sourceforge.net/DTD/sodipodi-0.dtd"
   xmlns="http://www.w3.org/2000/svg"
   xmlns:svg="http://www.w3.org/2000/svg">
  <sodipodi:namedview
     id="namedview1"
     pagecolor="#ffffff"
     bordercolor="#000000"
     borderopacity="0.25"
     inkscape:showpageshadow="2"
     inkscape:pageopacity="0.0"
     inkscape:pagecheckerboard="0"
     inkscape:deskcolor="#d1d1d1"
     inkscape:document-units="mm"
     inkscape:zoom="1.5156072"
     inkscape:cx="176.16702"
     inkscape:cy="352.00413"
     inkscape:window-width="2560"
     inkscape:window-height="1412"
     inkscape:window-x="0"
     inkscape:window-y="0"
     inkscape:window-maximized="1"
     inkscape:current-layer="layer1" />
  <defs
     id="defs1" />
  <g
     inkscape:label="Layer 1"
     inkscape:groupmode="layer"
     id="layer1">
    <path
       style="fill:#000000;stroke-width:0.264583"
       d="m 52.092269,85.915211 c -0.329178,0.246882 -0.745516,0.407876 -0.98753,0.740648 -0.374592,0.515061 -2.111733,4.478824 -2.221947,4.690774 -2.258386,4.343048 -1.512271,2.480881 -3.950124,6.418953 -0.445966,0.720405 -0.764434,1.516972 -1.234413,2.221944 -0.228243,0.34237 -1.031603,0.69658 -0.740648,0.98753 0.411469,0.41147 1.148281,-0.19856 1.728179,-0.24688 1.80422,-0.15035 3.622283,-0.0696 5.431419,0 2.204847,0.0848 4.083801,0.60793 6.17207,1.23441 0.725504,0.21765 2.60549,1.16609 3.456361,0.74065 1.089303,-0.54465 0.470778,-1.68 0,-2.71571 -0.720077,-1.584164 -0.960102,-1.728179 -1.728179,-3.456358 -1.369489,-3.081348 -0.54937,-1.927018 -2.221947,-4.937657 -1.097568,-1.975625 -2.023774,-2.340721 -2.962593,-3.950126 -0.315793,-0.541358 -0.493765,-1.152117 -0.740648,-1.728178 z"
       id="path1" />
    <path
       style="fill:#000000;stroke-width:0.264583"
       id="path2"
       d="m 63.996805,86.408849 c -0.02426,0.240961 -0.06093,0.480994 -0.07276,0.722884 -0.04291,0.877237 -0.01363,2.090581 2.64e-4,2.928742 0.03057,1.843264 0.06368,3.686077 0.08325,5.529521 -0.03611,1.605637 0.02056,3.207787 0.130691,4.808874 0.01722,0.97213 -0.07336,0.46535 1.531948,1.08432 -0.338582,-0.57495 -1.776523,-1.803537 -2.010682,-0.86227 -0.02609,0.23657 -0.107953,0.48753 0.01466,0.70423 0.609298,0.33815 1.2021,0.70791 1.827895,1.01445 0.337143,0.16515 1.461593,0.34431 1.681009,0.37641 1.730227,0.25317 3.449754,0.27363 5.194702,0.28542 2.52159,0.0171 5.006792,-0.46733 7.516315,-0.60457 0.4309,-0.10154 0.256802,-0.0217 0.541486,-0.19218 0,0 -0.943994,-0.68944 -0.943994,-0.68944 v 0 c -0.696635,-0.17042 -0.332571,-0.10405 -1.093832,-0.18992 -2.453159,0.20368 -4.877081,0.74467 -7.352242,0.7061 -1.769263,-0.024 -3.503811,-0.0611 -5.251564,-0.36733 -0.366715,-0.0643 -0.731395,-0.14259 -1.091218,-0.23818 -0.21404,-0.0569 -0.798182,-0.35949 -0.627467,-0.2184 0.390427,0.32265 0.870008,0.51889 1.305012,0.77834 -0.258308,0.0115 -0.11833,-0.3329 -0.122629,-0.50751 0.126127,-0.73259 0.0643,-0.1199 -1.558441,-1.03564 -0.169249,-0.0955 0.488058,0.31659 0.316241,0.29984 2.077913,1.10151 1.76309,1.42402 1.558406,0.3688 -0.232722,-1.636543 -0.370128,-3.290427 -0.423513,-4.941808 -0.08354,-3.034557 -0.198681,-6.080781 0.04223,-9.110737 z" />
    <g
       id="g13"
       transform="translate(-36.136507,20.774127)">
      <path
         style="fill:#000000;stroke-width:0.264583"
         id="path3"
         d="m 81.84404,86.350138 c 2.776109,-0.821807 5.658387,-1.107967 8.53593,-1.282184 1.500446,-0.0489 3.006918,-0.157541 4.508878,-0.08543 0.02061,0.0039 0.07936,0.02328 0.06179,0.01183 -0.567233,-0.369509 -1.091539,-0.823717 -1.714582,-1.088499 -0.102677,-0.04364 -0.140322,0.179507 -0.174154,0.285819 -0.275871,0.866868 -0.304247,2.231136 -0.386618,3.127264 -0.04895,1.221044 -0.239746,2.437162 -0.267022,3.659455 -0.0063,0.282847 -0.07198,0.582588 0.02495,0.848389 0.111887,0.306829 0.382651,0.529367 0.573974,0.794051 0,0 0.205047,0.106154 0.205047,0.106154 v 0 c 0.212111,-0.05627 0.499165,0.0024 0.63633,-0.168794 0.162981,-0.203531 0.09181,-0.51385 0.118047,-0.773268 0.122618,-1.212509 0.0987,-2.439393 0.274164,-3.647906 0.116001,-1.007705 0.140819,-1.421352 0.32816,-2.375585 0.0397,-0.202229 0.07945,-0.405995 0.148518,-0.600165 0.02257,-0.06347 0.170175,-0.113618 0.122235,-0.160952 -1.215974,-1.200613 -0.851342,-1.222287 -1.51934,-1.159144 -1.448478,0.05378 -2.896373,0.125428 -4.342591,0.223038 -2.906993,0.23532 -5.814726,0.531117 -8.651692,1.238877 z" />
      <path
         style="fill:#000000;stroke-width:0.264583"
         id="path4"
         d="m 83.397663,93.251257 c 2.537407,-0.791152 5.201777,-0.961147 7.838728,-1.098026 1.479833,-0.139449 0.83533,0.03435 1.960536,-0.408189 0,0 -0.819845,-0.585546 -0.819845,-0.585546 v 0 c -1.773481,-0.167778 -0.881238,-0.129824 -2.676827,-0.111628 -2.69938,0.107513 -5.412036,0.3287 -8.024289,1.061418 z" />
      <path
         style="fill:#000000;stroke-width:0.264583"
         id="path5"
         d="m 81.604926,92.646737 c 0.169966,2.172166 0.359574,4.34622 0.419632,6.524807 0.0093,0.765033 -0.005,1.531796 0.03772,2.296066 0.159205,1.52707 2.395577,1.05691 3.291303,0.88701 2.601428,-0.68405 5.253559,-1.13988 7.881853,-1.70264 0.877541,-0.21635 1.755955,-0.43197 2.626196,-0.676623 0.295,-0.08294 0.786119,-0.211186 0.782926,-0.313852 -0.0055,-0.176593 -0.200547,-0.290938 -0.300821,-0.436409 0,0 -0.396121,-0.270179 -0.396121,-0.270179 v 0 c -0.254196,-0.09831 -0.495702,-0.239676 -0.76259,-0.294915 -0.233034,-0.04824 -0.786199,0.121816 -0.98376,0.178149 -0.84957,0.242247 -1.691119,0.514522 -2.553153,0.712216 -2.629508,0.592513 -5.285512,1.058023 -7.910748,1.671173 -0.273505,0.0414 -0.546245,0.0883 -0.820518,0.12424 -0.171857,0.0225 -0.629057,-0.0813 -0.517448,0.0513 2.527549,3.00324 1.489334,1.53726 1.432579,0.95277 -0.09764,-0.823 -0.243856,-1.63971 -0.366501,-2.459142 -0.297442,-2.194205 -0.414282,-4.401394 -0.587402,-6.607574 z" />
    </g>
    <path
       style="fill:#000000;stroke-width:0.264583"
       d="m 70.531832,106.96617 c -0.24688,-0.32917 -0.41147,-1.23441 -0.74065,-0.98753 -0.32917,0.24688 1.11885,1.14962 0.74065,0.98753 -0.92331,-0.3957 -1.50295,-1.45221 -2.46883,-1.72818 -1.01903,-0.29115 -3.07547,4.1424 -3.20947,4.44389 -0.936137,2.1063 -1.673693,4.8724 -0.987533,7.1596 1.487303,4.95769 9.239543,8.10648 12.097253,2.9626 0.45568,-0.82022 0.53271,-1.80075 0.74065,-2.71571 0.57298,-2.52112 1.06081,-5.96546 -0.24688,-8.39402 -2.38401,-4.42745 -7.40122,-4.50956 -11.10973,-1.72818"
       id="path6" />
  </g>
</svg>
