<?xml version="1.0" encoding="UTF-8" standalone="no"?>
<!-- Created with Inkscape (http://www.inkscape.org/) -->

<svg
   width="210mm"
   height="297mm"
   viewBox="0 0 210 297"
   version="1.1"
   id="svg1"
   inkscape:version="1.4.2 (ebf0e940d0, 2025-05-08)"
   sodipodi:docname="logo2.svg"
   xmlns:inkscape="http://www.inkscape.org/namespaces/inkscape"
   xmlns:sodipodi="http://sodipodi.sourceforge.net/DTD/sodipodi-0.dtd"
   xmlns="http://www.w3.org/2000/svg"
   xmlns:svg="http://www.w3.org/2000/svg">
  <sodipodi:namedview
     id="namedview1"
     pagecolor="#ffffff"
     bordercolor="#000000"
     borderopacity="0.25"
     inkscape:showpageshadow="2"
     inkscape:pageopacity="0.0"
     inkscape:pagecheckerboard="0"
     inkscape:deskcolor="#d1d1d1"
     inkscape:document-units="mm"
     inkscape:zoom="0.83071236"
     inkscape:cx="405.67592"
     inkscape:cy="287.10299"
     inkscape:window-width="2560"
     inkscape:window-height="1412"
     inkscape:window-x="0"
     inkscape:window-y="0"
     inkscape:window-maximized="1"
     inkscape:current-layer="layer1" />
  <defs
     id="defs1" />
  <g
     inkscape:label="Layer 1"
     inkscape:groupmode="layer"
     id="layer1">
    <path
       style="fill:#000000;stroke-width:0.264583"
       id="path15"
       d="m 39.663904,98.789626 c -0.744829,3.080174 -1.735971,6.093794 -2.580402,9.146514 -0.275939,0.99755 -0.569722,1.9918 -0.785024,3.00417 -0.20052,0.94288 -0.30735,1.90328 -0.461026,2.85492 0,0 0.336815,0.18342 0.336815,0.18342 v 0 c 0.351475,-0.8434 0.736766,-1.67349 1.05442,-2.5302 1.449877,-3.9103 2.390481,-7.99672 3.77826,-11.928838 z" />
    <path
       style="fill:#000000;stroke-width:0.264583"
       id="path16"
       d="m 37.758624,100.69782 c 1.657056,3.35785 3.046216,6.83949 4.487402,10.2932 0.606525,1.43513 1.189783,2.88005 1.798309,4.31435 0.274566,0.64715 0.464751,1.15689 0.888383,1.71059 0,0 0.954874,0.43765 0.954874,0.43765 v 0 c 0.04088,-0.5187 -0.332007,-1.09042 -0.533382,-1.54674 -0.642165,-1.45517 -1.297543,-2.90456 -1.919404,-4.36865 -1.452469,-3.4208 -2.79619,-6.89045 -4.37203,-10.25717 z" />
    <path
       style="fill:#000000;stroke-width:0.264583"
       id="path17"
       d="m 45.649813,42.698757 c 0.02043,12.558466 0.721688,25.110484 1.291482,37.653428 0.806344,16.424224 1.417928,32.856355 1.894776,49.293165 0,0 0.111506,0.0566 0.111506,0.0566 v 0 c -0.01614,-2.32748 -0.0081,-4.65524 -0.04844,-6.98242 C 48.655591,108.65876 47.788652,94.618261 47.359897,80.563412 46.949838,68.126786 46.610007,55.686451 46.71569,43.241848 Z" />
    <path
       style="fill:#000000;stroke-width:0.264583"
       id="path18"
       d="m 51.580645,98.503072 c 0.12393,3.430918 0.420923,6.855208 0.631004,10.282328 0.06534,1.5613 0.175869,3.12081 0.224952,4.68283 0.513638,1.77674 2.643383,0.87486 3.714879,0.65117 0.368028,-0.0768 0.739053,-0.13854 1.108578,-0.2078 1.564135,-0.2116 3.119525,-0.46489 4.670028,-0.759 0,0 -0.468995,-0.33865 -0.468995,-0.33865 v 0 c -1.865186,-0.15421 -3.724481,-0.23873 -5.574768,0.13712 -0.881071,0.15779 -1.762112,0.38972 -2.647635,0.51816 -0.147722,0.0214 -0.548574,-0.0767 -0.446635,0.0323 0.303268,0.32439 1.737558,1.24796 1.127601,0.70943 -0.168947,-1.59703 -0.28892,-3.19892 -0.451022,-4.79662 -0.288126,-3.40754 -0.563806,-6.82444 -0.580708,-10.245207 z" />
    <path
       style="fill:#000000;stroke-width:0.264583"
       id="path19"
       d="m 61.490827,96.242895 c 1.048229,9.374715 1.700528,18.785895 2.269266,28.199765 0.455453,9.48655 0.819507,18.98049 1.605057,28.44761 0.467921,5.63921 0.592699,6.28509 1.24088,11.68055 0.196702,1.46194 0.393407,2.92388 0.590108,4.38582 0,0 0.07176,0.0354 0.07176,0.0354 v 0 c -0.196734,-1.46189 -0.393465,-2.92377 -0.590198,-4.38565 -0.499028,-5.10553 -0.653378,-6.239 -0.978644,-11.54853 -0.576109,-9.40421 -0.610542,-18.83223 -1.186053,-28.23684 -0.48269,-9.31333 -1.008446,-18.62798 -1.711957,-27.92687 z" />
    <path
       style="fill:#000000;stroke-width:0.264583"
       id="path20"
       d="m 65.037017,114.07325 c 3.33802,-0.42098 6.544606,-1.45373 9.797737,-2.26328 0,0 -0.555331,-0.38859 -0.555331,-0.38859 v 0 c -0.817142,0.0979 -1.636908,0.17596 -2.45142,0.29373 -2.735929,0.39561 -5.417704,1.09486 -8.168984,1.39329 z" />
    <path
       style="fill:#000000;stroke-width:0.264583"
       id="path27"
       d="m 70.466687,125.75735 c 0.339855,-0.25816 0.669838,-0.52986 1.019564,-0.77448 1.183802,-0.82802 2.624984,-1.84752 4.125905,-1.95098 0.384995,-0.0265 0.764685,0.10741 1.143407,0.18156 0.08338,0.0163 -0.169849,-0.005 -0.254772,-0.008 0.275812,0.35143 0.551621,0.70287 0.827434,1.05431 0,0 0.784942,0.34442 0.784942,0.34442 v 0 c -0.159314,-0.31643 -0.318625,-0.63287 -0.477938,-0.94931 -0.69968,-0.45109 -1.340864,-1.00947 -2.099046,-1.35327 -0.80501,-0.36505 -1.820182,-0.0367 -2.554258,0.25733 -1.407263,0.56369 -2.681817,1.45873 -3.923514,2.30912 z" />
    <path
       style="fill:#000000;stroke-width:0.264583"
       id="path28"
       d="m 70.623437,129.58802 c 1.84004,-0.77683 3.588322,-1.72545 5.334011,-2.69064 0,0 -0.665647,-0.44476 -0.665647,-0.44476 v 0 c -2.060525,0.62677 -4.103672,1.28553 -6.057924,2.20179 z" />
    <path
       style="fill:#000000;stroke-width:0.264583"
       id="path29"
       d="m 71.077801,129.11417 c 0.142359,1.99664 0.517358,3.96988 0.881488,5.936 0.07444,0.1627 0.07817,0.3835 0.223332,0.4881 0.579477,0.41761 1.212951,0.77303 1.880227,1.02784 0.206346,0.0788 0.443707,-0.0135 0.660115,-0.0577 1.152564,-0.23546 2.129059,-0.87855 3.142472,-1.44145 0,0 -0.466154,-0.31578 -0.466154,-0.31578 v 0 c -1.020442,0.19435 -2.045472,0.36473 -3.063883,0.56947 -0.320349,0.0644 -0.631322,0.17625 -0.954944,0.22141 -0.206481,0.0288 -0.708679,-0.192 -0.625446,-7.9e-4 0.149719,0.34385 0.551778,0.55445 0.911973,0.6589 0.190667,0.0553 -0.223898,-0.32789 -0.335848,-0.49184 -0.58537,-1.94585 -0.854292,-3.98344 -1.083152,-5.99781 z" />
    <path
       style="fill:#000000;stroke-width:0.264583"
       id="path30"
       d="m 81.930765,115.47954 c 0.427863,13.56278 1.400837,27.10135 2.284982,40.63991 1.175112,18.56946 2.63008,37.11861 4.278294,55.65152 0,0 0.0716,0.0357 0.0716,0.0357 v 0 c -1.645529,-18.50218 -3.171749,-37.0188 -4.120304,-55.57193 -0.703963,-13.3842 -1.468278,-26.7748 -1.392203,-40.18332 z" />
    <path
       style="fill:#000000;stroke-width:0.264583"
       id="path32"
       d="m 96.521385,122.33006 c -1.798153,-1.17722 -3.703251,-2.38378 -5.712465,-0.82763 -0.401473,0.31094 -0.69007,0.74516 -1.035108,1.11774 -0.270465,0.49128 -0.615873,0.94822 -0.811401,1.47384 -0.673129,1.80953 -0.724947,4.07067 0.05633,5.86075 0.220107,0.50432 0.497171,1.02281 0.927788,1.36538 0.757912,0.60293 1.697776,0.93242 2.546662,1.39863 0.515474,-0.028 1.053177,0.0684 1.546423,-0.0839 2.617653,-0.8084 3.974608,-3.97179 4.083722,-6.47791 0.02865,-0.65806 -0.128611,-1.31108 -0.192918,-1.96661 -0.716965,-2.13628 -0.171505,-1.18721 -1.613982,-2.85994 0,0 -0.540359,-0.23458 -0.540359,-0.23458 v 0 c 0.715153,1.41104 0.383212,0.6014 0.89693,2.46717 0.04475,0.63171 0.168116,1.26275 0.134234,1.89514 -0.130532,2.43628 -1.306558,5.6025 -3.937114,6.33369 -0.481391,0.13381 -0.999085,0.0198 -1.498626,0.0297 -0.622218,0.2655 -0.41089,0.22741 -1.133605,-1.28594 -0.837491,-1.7537 -0.770181,-3.97122 -0.08509,-5.75678 0.196721,-0.51272 0.539298,-0.9568 0.808948,-1.4352 1.099156,-1.13574 1.553099,-1.76503 3.271017,-1.70131 0.309168,0.0115 0.623348,0.29632 0.91036,0.18082 0.185092,-0.0745 -0.683244,-0.35041 -0.483738,-0.3525 0.227389,-0.002 0.389806,0.2343 0.584706,0.35145 z" />
    <path
       style="fill:#000000;stroke-width:0.264583"
       id="path33"
       d="m 92.323588,130.77316 c -0.0024,2.17012 0.251635,4.3245 0.548558,6.46994 0,0 0.54919,0.2777 0.54919,0.2777 v 0 c 0.181722,-2.01598 0.253175,-4.03149 0.260091,-6.05579 z" />
    <path
       style="fill:#000000;stroke-width:0.264583"
       id="path34"
       d="m 84.331849,139.39862 c 12.187822,-0.57867 24.358451,-1.45153 36.521621,-2.40794 8.4967,-0.63954 17.03679,-1.30147 25.56396,-0.8405 1.85404,0.10023 3.69548,0.36541 5.54321,0.54812 0,0 -0.0642,-0.0477 -0.0642,-0.0477 v 0 c -1.8867,-0.21093 -3.7663,-0.49995 -5.6601,-0.63281 -2.45344,-0.17211 -4.91356,-0.28202 -7.37302,-0.28148 -5.51761,0.001 -13.12551,0.54092 -18.55607,0.86341 -12.42634,0.79623 -24.859254,1.66232 -37.314422,1.81137 z" />
  </g>
</svg>
